<svg width="350" height="306" viewBox="0 0 350 306" fill="none" xmlns="http://www.w3.org/2000/svg">
<rect y="0.712891" width="350" height="305" rx="8" fill="#2A2A2A"/>
<path d="M0.765625 9.6167C0.765625 5.19842 4.34735 1.6167 8.76562 1.6167H342C346.418 1.6167 350 5.19842 350 9.6167V218.383H0.765625V9.6167Z" fill="#FF4040"/>
<path fill-rule="evenodd" clip-rule="evenodd" d="M216.196 74.9073C220.816 76.1551 224.448 79.7961 225.676 84.4115C227.909 92.7875 227.909 110.275 227.909 110.275C227.909 110.275 227.909 127.762 225.676 136.138C224.431 140.77 220.799 144.411 216.196 145.642C207.841 147.881 174.32 147.881 174.32 147.881C174.32 147.881 140.816 147.881 132.444 145.642C127.823 144.394 124.192 140.753 122.964 136.138C120.73 127.762 120.73 110.275 120.73 110.275C120.73 110.275 120.73 92.7875 122.964 84.4115C124.209 79.779 127.84 76.138 132.444 74.9073C140.816 72.668 174.32 72.668 174.32 72.668C174.32 72.668 207.841 72.668 216.196 74.9073ZM191.456 110.275L163.612 126.394V94.155L191.456 110.275Z" fill="white"/>
<path d="M321.381 254.022C321.571 253.824 321.835 253.713 322.116 253.713C322.396 253.713 322.67 253.824 322.877 254.022L329.143 260.015C329.35 260.213 329.473 260.482 329.486 260.762C329.498 261.042 329.399 261.311 329.209 261.509L323.478 267.501C323.286 267.688 323.025 267.79 322.751 267.785C322.476 267.78 322.209 267.67 322.007 267.476C321.804 267.282 321.682 267.021 321.665 266.747C321.648 266.473 321.738 266.207 321.916 266.007L325.921 261.819L315.42 261.819C315.14 261.819 314.865 261.708 314.658 261.51C314.451 261.311 314.327 261.042 314.315 260.762C314.302 260.481 314.402 260.212 314.591 260.014C314.781 259.816 315.045 259.704 315.326 259.704L325.826 259.704L321.448 255.517C321.241 255.319 321.118 255.05 321.105 254.77C321.093 254.489 321.192 254.221 321.381 254.022Z" fill="white"/>
<path d="M28.544 245.433V247.929H24.032V249.913H27.36V252.297H24.032V256.713H20.896V245.433H28.544ZM36.9208 256.713L34.7288 253.529L32.8568 256.713H29.2888L32.9528 250.937L29.1608 245.433H32.8568L34.9848 248.537L36.8088 245.433H40.3768L36.7608 251.113L40.6168 256.713H36.9208ZM46.1569 245.433C47.3409 245.433 48.3755 245.673 49.2609 246.153C50.1569 246.622 50.8449 247.284 51.3249 248.137C51.8049 248.99 52.0449 249.966 52.0449 251.065C52.0449 252.153 51.7995 253.124 51.3089 253.977C50.8289 254.83 50.1409 255.502 49.2449 255.993C48.3595 256.473 47.3302 256.713 46.1569 256.713H41.6929V245.433H46.1569ZM45.9169 253.945C46.8342 253.945 47.5542 253.694 48.0769 253.193C48.5995 252.692 48.8609 251.982 48.8609 251.065C48.8609 250.137 48.5995 249.422 48.0769 248.921C47.5542 248.409 46.8342 248.153 45.9169 248.153H44.8289V253.945H45.9169ZM60.5145 256.713L58.3225 253.529L56.4505 256.713H52.8825L56.5465 250.937L52.7545 245.433H56.4505L58.5785 248.537L60.4025 245.433H63.9705L60.3545 251.113L64.2105 256.713H60.5145ZM79.3251 245.433L75.4371 256.713H71.4211L67.5171 245.433H70.8771L73.4371 253.577L75.9811 245.433H79.3251ZM79.9342 254.201C80.9689 253.39 81.8169 252.692 82.4783 252.105C83.1396 251.518 83.6943 250.916 84.1423 250.297C84.5903 249.668 84.8143 249.07 84.8143 248.505C84.8143 248.164 84.7343 247.897 84.5743 247.705C84.4249 247.513 84.2009 247.417 83.9023 247.417C83.5929 247.417 83.3529 247.55 83.1823 247.817C83.0116 248.073 82.9316 248.452 82.9423 248.953H79.9023C79.9343 248.004 80.1423 247.22 80.5263 246.601C80.9103 245.972 81.4116 245.513 82.0303 245.225C82.6489 244.926 83.3369 244.777 84.0943 244.777C85.4063 244.777 86.3823 245.102 87.0223 245.753C87.6623 246.404 87.9823 247.246 87.9823 248.281C87.9823 249.39 87.6089 250.43 86.8623 251.401C86.1263 252.372 85.2036 253.241 84.0943 254.009H88.0943V256.553H79.9342V254.201ZM96.9381 245.433C98.1221 245.433 99.1568 245.673 100.042 246.153C100.938 246.622 101.626 247.284 102.106 248.137C102.586 248.99 102.826 249.966 102.826 251.065C102.826 252.153 102.581 253.124 102.09 253.977C101.61 254.83 100.922 255.502 100.026 255.993C99.1408 256.473 98.1115 256.713 96.9381 256.713H92.4741V245.433H96.9381ZM96.6981 253.945C97.6155 253.945 98.3355 253.694 98.8581 253.193C99.3808 252.692 99.6421 251.982 99.6421 251.065C99.6421 250.137 99.3808 249.422 98.8581 248.921C98.3355 248.409 97.6155 248.153 96.6981 248.153H95.6101V253.945H96.6981ZM111.376 254.873H107.376L106.768 256.713H103.472L107.584 245.433H111.2L115.296 256.713H111.984L111.376 254.873ZM110.592 252.473L109.376 248.825L108.176 252.473H110.592ZM120.574 256.825C119.262 256.825 118.185 256.516 117.342 255.897C116.499 255.268 116.046 254.372 115.982 253.209H119.326C119.358 253.604 119.475 253.892 119.678 254.073C119.881 254.254 120.142 254.345 120.462 254.345C120.75 254.345 120.985 254.276 121.166 254.137C121.358 253.988 121.454 253.785 121.454 253.529C121.454 253.198 121.299 252.942 120.99 252.761C120.681 252.58 120.179 252.377 119.486 252.153C118.75 251.908 118.153 251.673 117.694 251.449C117.246 251.214 116.851 250.878 116.51 250.441C116.179 249.993 116.014 249.412 116.014 248.697C116.014 247.972 116.195 247.353 116.558 246.841C116.921 246.318 117.422 245.924 118.062 245.657C118.702 245.39 119.427 245.257 120.238 245.257C121.55 245.257 122.595 245.566 123.374 246.185C124.163 246.793 124.585 247.652 124.638 248.761H121.23C121.219 248.42 121.113 248.164 120.91 247.993C120.718 247.822 120.467 247.737 120.158 247.737C119.923 247.737 119.731 247.806 119.582 247.945C119.433 248.084 119.358 248.281 119.358 248.537C119.358 248.75 119.438 248.937 119.598 249.097C119.769 249.246 119.977 249.38 120.222 249.497C120.467 249.604 120.83 249.742 121.31 249.913C122.025 250.158 122.611 250.404 123.07 250.649C123.539 250.884 123.939 251.22 124.27 251.657C124.611 252.084 124.782 252.628 124.782 253.289C124.782 253.961 124.611 254.564 124.27 255.097C123.939 255.63 123.454 256.052 122.814 256.361C122.185 256.67 121.438 256.825 120.574 256.825ZM136.336 245.433V256.713H133.2V252.185H129.376V256.713H126.24V245.433H129.376V249.673H133.2V245.433H136.336ZM145.33 250.921C145.992 251.07 146.514 251.401 146.898 251.913C147.293 252.414 147.49 252.99 147.49 253.641C147.49 254.601 147.16 255.353 146.498 255.897C145.837 256.441 144.909 256.713 143.714 256.713H138.13V245.433H143.538C144.69 245.433 145.592 245.689 146.242 246.201C146.904 246.713 147.234 247.433 147.234 248.361C147.234 249.022 147.058 249.577 146.706 250.025C146.365 250.462 145.906 250.761 145.33 250.921ZM141.266 249.913H142.85C143.64 249.913 144.034 249.588 144.034 248.937C144.034 248.265 143.64 247.929 142.85 247.929H141.266V249.913ZM143.09 254.185C143.88 254.185 144.274 253.854 144.274 253.193C144.274 252.852 144.168 252.59 143.954 252.409C143.752 252.228 143.458 252.137 143.074 252.137H141.266V254.185H143.09ZM154.273 256.825C153.217 256.825 152.246 256.58 151.361 256.089C150.475 255.588 149.771 254.9 149.249 254.025C148.737 253.14 148.481 252.142 148.481 251.033C148.481 249.924 148.737 248.932 149.249 248.057C149.771 247.172 150.475 246.484 151.361 245.993C152.246 245.502 153.217 245.257 154.273 245.257C155.339 245.257 156.31 245.502 157.185 245.993C158.07 246.484 158.769 247.172 159.281 248.057C159.793 248.932 160.049 249.924 160.049 251.033C160.049 252.142 159.793 253.14 159.281 254.025C158.769 254.9 158.07 255.588 157.185 256.089C156.299 256.58 155.329 256.825 154.273 256.825ZM154.273 253.913C155.073 253.913 155.702 253.652 156.161 253.129C156.63 252.606 156.865 251.908 156.865 251.033C156.865 250.137 156.63 249.433 156.161 248.921C155.702 248.398 155.073 248.137 154.273 248.137C153.462 248.137 152.827 248.398 152.369 248.921C151.91 249.433 151.681 250.137 151.681 251.033C151.681 251.918 151.91 252.622 152.369 253.145C152.827 253.657 153.462 253.913 154.273 253.913ZM168.595 254.873H164.595L163.987 256.713H160.691L164.803 245.433H168.419L172.515 256.713H169.203L168.595 254.873ZM167.811 252.473L166.595 248.825L165.395 252.473H167.811ZM179.249 256.713L177.009 252.553H176.673V256.713H173.537V245.433H178.481C179.387 245.433 180.155 245.593 180.785 245.913C181.414 246.222 181.889 246.654 182.209 247.209C182.529 247.753 182.689 248.366 182.689 249.049C182.689 249.817 182.475 250.494 182.049 251.081C181.633 251.657 181.019 252.068 180.209 252.313L182.753 256.713H179.249ZM176.673 250.409H178.225C178.651 250.409 178.971 250.308 179.185 250.105C179.398 249.902 179.505 249.609 179.505 249.225C179.505 248.862 179.393 248.58 179.169 248.377C178.955 248.164 178.641 248.057 178.225 248.057H176.673V250.409ZM188.579 245.433C189.763 245.433 190.797 245.673 191.683 246.153C192.579 246.622 193.267 247.284 193.747 248.137C194.227 248.99 194.467 249.966 194.467 251.065C194.467 252.153 194.221 253.124 193.731 253.977C193.251 254.83 192.563 255.502 191.667 255.993C190.781 256.473 189.752 256.713 188.579 256.713H184.115V245.433H188.579ZM188.339 253.945C189.256 253.945 189.976 253.694 190.499 253.193C191.021 252.692 191.283 251.982 191.283 251.065C191.283 250.137 191.021 249.422 190.499 248.921C189.976 248.409 189.256 248.153 188.339 248.153H187.251V253.945H188.339Z" fill="white"/>
<path d="M25.652 271.349V272.237H22.016V275.057H24.968V275.945H22.016V279.713H20.924V271.349H25.652ZM32.9709 276.173C32.9709 276.381 32.9589 276.601 32.9349 276.833H27.6789C27.7189 277.481 27.9389 277.989 28.3389 278.357C28.7469 278.717 29.2389 278.897 29.8149 278.897C30.2869 278.897 30.6789 278.789 30.9909 278.573C31.3109 278.349 31.5349 278.053 31.6629 277.685H32.8389C32.6629 278.317 32.3109 278.833 31.7829 279.233C31.2549 279.625 30.5989 279.821 29.8149 279.821C29.1909 279.821 28.6309 279.681 28.1349 279.401C27.6469 279.121 27.2629 278.725 26.9829 278.213C26.7029 277.693 26.5629 277.093 26.5629 276.413C26.5629 275.733 26.6989 275.137 26.9709 274.625C27.2429 274.113 27.6229 273.721 28.1109 273.449C28.6069 273.169 29.1749 273.029 29.8149 273.029C30.4389 273.029 30.9909 273.165 31.4709 273.437C31.9509 273.709 32.3189 274.085 32.5749 274.565C32.8389 275.037 32.9709 275.573 32.9709 276.173ZM31.8429 275.945C31.8429 275.529 31.7509 275.173 31.5669 274.877C31.3829 274.573 31.1309 274.345 30.8109 274.193C30.4989 274.033 30.1509 273.953 29.7669 273.953C29.2149 273.953 28.7429 274.129 28.3509 274.481C27.9669 274.833 27.7469 275.321 27.6909 275.945H31.8429ZM35.5043 274.361C35.7283 273.969 36.0563 273.649 36.4883 273.401C36.9203 273.153 37.4123 273.029 37.9643 273.029C38.5563 273.029 39.0883 273.169 39.5603 273.449C40.0323 273.729 40.4043 274.125 40.6763 274.637C40.9483 275.141 41.0843 275.729 41.0843 276.401C41.0843 277.065 40.9483 277.657 40.6763 278.177C40.4043 278.697 40.0283 279.101 39.5483 279.389C39.0763 279.677 38.5483 279.821 37.9643 279.821C37.3963 279.821 36.8963 279.697 36.4643 279.449C36.0403 279.201 35.7203 278.885 35.5043 278.501V279.713H34.4123V270.833H35.5043V274.361ZM39.9683 276.401C39.9683 275.905 39.8683 275.473 39.6683 275.105C39.4683 274.737 39.1963 274.457 38.8523 274.265C38.5163 274.073 38.1443 273.977 37.7363 273.977C37.3363 273.977 36.9643 274.077 36.6203 274.277C36.2843 274.469 36.0123 274.753 35.8043 275.129C35.6043 275.497 35.5043 275.925 35.5043 276.413C35.5043 276.909 35.6043 277.345 35.8043 277.721C36.0123 278.089 36.2843 278.373 36.6203 278.573C36.9643 278.765 37.3363 278.861 37.7363 278.861C38.1443 278.861 38.5163 278.765 38.8523 278.573C39.1963 278.373 39.4683 278.089 39.6683 277.721C39.8683 277.345 39.9683 276.905 39.9683 276.401ZM45.4089 278.837C46.4249 278.021 47.2209 277.353 47.7969 276.833C48.3729 276.305 48.8569 275.757 49.2489 275.189C49.6489 274.613 49.8489 274.049 49.8489 273.497C49.8489 272.977 49.7209 272.569 49.4649 272.273C49.2169 271.969 48.8129 271.817 48.2529 271.817C47.7089 271.817 47.2849 271.989 46.9809 272.333C46.6849 272.669 46.5249 273.121 46.5009 273.689H45.4449C45.4769 272.793 45.7489 272.101 46.2609 271.613C46.7729 271.125 47.4329 270.881 48.2409 270.881C49.0649 270.881 49.7169 271.109 50.1969 271.565C50.6849 272.021 50.9289 272.649 50.9289 273.449C50.9289 274.113 50.7289 274.761 50.3289 275.393C49.9369 276.017 49.4889 276.569 48.9849 277.049C48.4809 277.521 47.8369 278.073 47.0529 278.705H51.1809V279.617H45.4089V278.837ZM52.4432 275.285C52.4432 273.909 52.6672 272.837 53.1152 272.069C53.5632 271.293 54.3472 270.905 55.4672 270.905C56.5792 270.905 57.3592 271.293 57.8072 272.069C58.2552 272.837 58.4792 273.909 58.4792 275.285C58.4792 276.685 58.2552 277.773 57.8072 278.549C57.3592 279.325 56.5792 279.713 55.4672 279.713C54.3472 279.713 53.5632 279.325 53.1152 278.549C52.6672 277.773 52.4432 276.685 52.4432 275.285ZM57.3992 275.285C57.3992 274.589 57.3512 274.001 57.2552 273.521C57.1672 273.033 56.9792 272.641 56.6912 272.345C56.4112 272.049 56.0032 271.901 55.4672 271.901C54.9232 271.901 54.5072 272.049 54.2192 272.345C53.9392 272.641 53.7512 273.033 53.6552 273.521C53.5672 274.001 53.5232 274.589 53.5232 275.285C53.5232 276.005 53.5672 276.609 53.6552 277.097C53.7512 277.585 53.9392 277.977 54.2192 278.273C54.5072 278.569 54.9232 278.717 55.4672 278.717C56.0032 278.717 56.4112 278.569 56.6912 278.273C56.9792 277.977 57.1672 277.585 57.2552 277.097C57.3512 276.609 57.3992 276.005 57.3992 275.285ZM59.8464 278.837C60.8624 278.021 61.6584 277.353 62.2344 276.833C62.8104 276.305 63.2944 275.757 63.6864 275.189C64.0864 274.613 64.2864 274.049 64.2864 273.497C64.2864 272.977 64.1584 272.569 63.9024 272.273C63.6544 271.969 63.2504 271.817 62.6904 271.817C62.1464 271.817 61.7224 271.989 61.4184 272.333C61.1224 272.669 60.9624 273.121 60.9384 273.689H59.8824C59.9144 272.793 60.1864 272.101 60.6984 271.613C61.2104 271.125 61.8704 270.881 62.6784 270.881C63.5024 270.881 64.1544 271.109 64.6344 271.565C65.1224 272.021 65.3664 272.649 65.3664 273.449C65.3664 274.113 65.1664 274.761 64.7664 275.393C64.3744 276.017 63.9264 276.569 63.4224 277.049C62.9184 277.521 62.2744 278.073 61.4904 278.705H65.6184V279.617H59.8464V278.837ZM66.6167 277.781V276.953L70.8287 271.121H72.1367V276.833H73.3367V277.781H72.1367V279.713H71.0567V277.781H66.6167ZM71.1047 272.261L67.8767 276.833H71.1047V272.261ZM82.3668 274.853V275.777H77.5788V274.853H82.3668ZM96.0994 271.409V279.713H95.0074V273.521L92.2474 279.713H91.4794L88.7074 273.509V279.713H87.6154V271.409H88.7914L91.8634 278.273L94.9354 271.409H96.0994ZM97.5433 276.401C97.5433 275.729 97.6793 275.141 97.9513 274.637C98.2233 274.125 98.5953 273.729 99.0673 273.449C99.5473 273.169 100.079 273.029 100.663 273.029C101.239 273.029 101.739 273.153 102.163 273.401C102.587 273.649 102.903 273.961 103.111 274.337V273.137H104.215V279.713H103.111V278.489C102.895 278.873 102.571 279.193 102.139 279.449C101.715 279.697 101.219 279.821 100.651 279.821C100.067 279.821 99.5393 279.677 99.0673 279.389C98.5953 279.101 98.2233 278.697 97.9513 278.177C97.6793 277.657 97.5433 277.065 97.5433 276.401ZM103.111 276.413C103.111 275.917 103.011 275.485 102.811 275.117C102.611 274.749 102.339 274.469 101.995 274.277C101.659 274.077 101.287 273.977 100.879 273.977C100.471 273.977 100.099 274.073 99.7633 274.265C99.4273 274.457 99.1593 274.737 98.9593 275.105C98.7593 275.473 98.6593 275.905 98.6593 276.401C98.6593 276.905 98.7593 277.345 98.9593 277.721C99.1593 278.089 99.4273 278.373 99.7633 278.573C100.099 278.765 100.471 278.861 100.879 278.861C101.287 278.861 101.659 278.765 101.995 278.573C102.339 278.373 102.611 278.089 102.811 277.721C103.011 277.345 103.111 276.909 103.111 276.413ZM107.153 274.205C107.345 273.829 107.617 273.537 107.969 273.329C108.329 273.121 108.765 273.017 109.277 273.017V274.145H108.989C107.765 274.145 107.153 274.809 107.153 276.137V279.713H106.061V273.137H107.153V274.205ZM113.425 278.837C114.441 278.021 115.237 277.353 115.812 276.833C116.389 276.305 116.873 275.757 117.265 275.189C117.665 274.613 117.865 274.049 117.865 273.497C117.865 272.977 117.737 272.569 117.481 272.273C117.233 271.969 116.829 271.817 116.269 271.817C115.725 271.817 115.301 271.989 114.997 272.333C114.701 272.669 114.541 273.121 114.517 273.689H113.461C113.493 272.793 113.765 272.101 114.277 271.613C114.789 271.125 115.449 270.881 116.257 270.881C117.081 270.881 117.733 271.109 118.213 271.565C118.701 272.021 118.945 272.649 118.945 273.449C118.945 274.113 118.745 274.761 118.345 275.393C117.953 276.017 117.505 276.569 117.001 277.049C116.497 277.521 115.853 278.073 115.069 278.705H119.197V279.617H113.425V278.837ZM120.459 275.285C120.459 273.909 120.683 272.837 121.131 272.069C121.579 271.293 122.363 270.905 123.483 270.905C124.595 270.905 125.375 271.293 125.823 272.069C126.271 272.837 126.495 273.909 126.495 275.285C126.495 276.685 126.271 277.773 125.823 278.549C125.375 279.325 124.595 279.713 123.483 279.713C122.363 279.713 121.579 279.325 121.131 278.549C120.683 277.773 120.459 276.685 120.459 275.285ZM125.415 275.285C125.415 274.589 125.367 274.001 125.271 273.521C125.183 273.033 124.995 272.641 124.707 272.345C124.427 272.049 124.019 271.901 123.483 271.901C122.939 271.901 122.523 272.049 122.235 272.345C121.955 272.641 121.767 273.033 121.671 273.521C121.583 274.001 121.539 274.589 121.539 275.285C121.539 276.005 121.583 276.609 121.671 277.097C121.767 277.585 121.955 277.977 122.235 278.273C122.523 278.569 122.939 278.717 123.483 278.717C124.019 278.717 124.427 278.569 124.707 278.273C124.995 277.977 125.183 277.585 125.271 277.097C125.367 276.609 125.415 276.005 125.415 275.285ZM127.862 278.837C128.878 278.021 129.674 277.353 130.25 276.833C130.826 276.305 131.31 275.757 131.702 275.189C132.102 274.613 132.302 274.049 132.302 273.497C132.302 272.977 132.174 272.569 131.918 272.273C131.67 271.969 131.266 271.817 130.706 271.817C130.162 271.817 129.738 271.989 129.434 272.333C129.138 272.669 128.978 273.121 128.954 273.689H127.898C127.93 272.793 128.202 272.101 128.714 271.613C129.226 271.125 129.886 270.881 130.694 270.881C131.518 270.881 132.17 271.109 132.65 271.565C133.138 272.021 133.382 272.649 133.382 273.449C133.382 274.113 133.182 274.761 132.782 275.393C132.39 276.017 131.942 276.569 131.438 277.049C130.934 277.521 130.29 278.073 129.506 278.705H133.634V279.617H127.862V278.837ZM134.632 277.781V276.953L138.844 271.121H140.152V276.833H141.352V277.781H140.152V279.713H139.072V277.781H134.632ZM139.12 272.261L135.892 276.833H139.12V272.261Z" fill="#B1B2B3" fill-opacity="0.5"/>
</svg>
