<svg width="350" height="306" viewBox="0 0 350 306" fill="none" xmlns="http://www.w3.org/2000/svg">
<rect y="0.710449" width="350" height="305" rx="8" fill="#2A2A2A"/>
<path d="M0.382812 9C0.382812 4.58172 3.96453 1 8.38281 1H342C346.418 1 350 4.58172 350 9V218.004H0.382812V9Z" fill="#018ABD"/>
<path d="M174.731 71.5264C167.22 71.5264 159.877 73.7536 153.632 77.9264C147.387 82.0992 142.52 88.0302 139.646 94.9694C136.771 101.909 136.019 109.544 137.485 116.911C138.95 124.277 142.567 131.044 147.878 136.355C153.189 141.666 159.955 145.283 167.322 146.748C174.688 148.213 182.324 147.461 189.263 144.587C196.202 141.713 202.133 136.845 206.306 130.6C210.479 124.355 212.706 117.013 212.706 109.502C212.706 99.4303 208.705 89.771 201.583 82.6492C194.462 75.5274 184.802 71.5264 174.731 71.5264ZM194.931 111.93L162.38 128.205C161.967 128.412 161.507 128.509 161.045 128.488C160.583 128.467 160.134 128.329 159.741 128.086C159.348 127.842 159.023 127.503 158.798 127.099C158.573 126.695 158.455 126.24 158.455 125.777V93.2267C158.456 92.7646 158.574 92.3101 158.799 91.9065C159.024 91.5029 159.349 91.1635 159.742 90.9206C160.135 90.6776 160.584 90.5392 161.046 90.5184C161.508 90.4976 161.967 90.5951 162.38 90.8017L194.931 107.077C195.381 107.303 195.759 107.649 196.024 108.077C196.288 108.505 196.428 108.999 196.428 109.502C196.428 110.005 196.288 110.499 196.024 110.927C195.759 111.355 195.381 111.702 194.931 111.927" fill="white"/>
<path d="M321.381 254.02C321.571 253.822 321.835 253.711 322.116 253.711C322.396 253.711 322.67 253.822 322.877 254.02L329.143 260.012C329.35 260.21 329.473 260.479 329.486 260.759C329.498 261.04 329.399 261.308 329.209 261.507L323.478 267.499C323.286 267.686 323.025 267.787 322.751 267.783C322.476 267.778 322.209 267.667 322.007 267.474C321.804 267.28 321.682 267.018 321.665 266.744C321.648 266.47 321.738 266.205 321.916 266.004L325.921 261.817L315.42 261.817C315.14 261.817 314.865 261.705 314.658 261.507C314.451 261.309 314.327 261.04 314.315 260.759C314.302 260.479 314.402 260.21 314.591 260.012C314.781 259.813 315.045 259.702 315.326 259.702L325.826 259.702L321.448 255.514C321.241 255.316 321.118 255.047 321.105 254.767C321.093 254.487 321.192 254.218 321.381 254.02Z" fill="white"/>
<path d="M28.544 245.43V247.926H24.032V249.91H27.36V252.294H24.032V256.71H20.896V245.43H28.544ZM36.9208 256.71L34.7288 253.526L32.8568 256.71H29.2888L32.9528 250.934L29.1608 245.43H32.8568L34.9848 248.534L36.8088 245.43H40.3768L36.7608 251.11L40.6168 256.71H36.9208ZM46.1569 245.43C47.3409 245.43 48.3755 245.67 49.2609 246.15C50.1569 246.62 50.8449 247.281 51.3249 248.134C51.8049 248.988 52.0449 249.964 52.0449 251.062C52.0449 252.15 51.7995 253.121 51.3089 253.974C50.8289 254.828 50.1409 255.5 49.2449 255.99C48.3595 256.47 47.3302 256.71 46.1569 256.71H41.6929V245.43H46.1569ZM45.9169 253.942C46.8342 253.942 47.5542 253.692 48.0769 253.19C48.5995 252.689 48.8609 251.98 48.8609 251.062C48.8609 250.134 48.5995 249.42 48.0769 248.918C47.5542 248.406 46.8342 248.15 45.9169 248.15H44.8289V253.942H45.9169ZM60.5145 256.71L58.3225 253.526L56.4505 256.71H52.8825L56.5465 250.934L52.7545 245.43H56.4505L58.5785 248.534L60.4025 245.43H63.9705L60.3545 251.11L64.2105 256.71H60.5145ZM79.3251 245.43L75.4371 256.71H71.4211L67.5171 245.43H70.8771L73.4371 253.574L75.9811 245.43H79.3251ZM79.9342 254.198C80.9689 253.388 81.8169 252.689 82.4783 252.102C83.1396 251.516 83.6943 250.913 84.1423 250.294C84.5903 249.665 84.8143 249.068 84.8143 248.502C84.8143 248.161 84.7343 247.894 84.5743 247.702C84.4249 247.51 84.2009 247.414 83.9023 247.414C83.5929 247.414 83.3529 247.548 83.1823 247.814C83.0116 248.07 82.9316 248.449 82.9423 248.95H79.9023C79.9343 248.001 80.1423 247.217 80.5263 246.598C80.9103 245.969 81.4116 245.51 82.0303 245.222C82.6489 244.924 83.3369 244.774 84.0943 244.774C85.4063 244.774 86.3823 245.1 87.0223 245.75C87.6623 246.401 87.9823 247.244 87.9823 248.278C87.9823 249.388 87.6089 250.428 86.8623 251.398C86.1263 252.369 85.2036 253.238 84.0943 254.006H88.0943V256.55H79.9342V254.198ZM96.9381 245.43C98.1221 245.43 99.1568 245.67 100.042 246.15C100.938 246.62 101.626 247.281 102.106 248.134C102.586 248.988 102.826 249.964 102.826 251.062C102.826 252.15 102.581 253.121 102.09 253.974C101.61 254.828 100.922 255.5 100.026 255.99C99.1408 256.47 98.1115 256.71 96.9381 256.71H92.4741V245.43H96.9381ZM96.6981 253.942C97.6155 253.942 98.3355 253.692 98.8581 253.19C99.3808 252.689 99.6421 251.98 99.6421 251.062C99.6421 250.134 99.3808 249.42 98.8581 248.918C98.3355 248.406 97.6155 248.15 96.6981 248.15H95.6101V253.942H96.6981ZM111.376 254.87H107.376L106.768 256.71H103.472L107.584 245.43H111.2L115.296 256.71H111.984L111.376 254.87ZM110.592 252.47L109.376 248.822L108.176 252.47H110.592ZM120.574 256.822C119.262 256.822 118.185 256.513 117.342 255.894C116.499 255.265 116.046 254.369 115.982 253.206H119.326C119.358 253.601 119.475 253.889 119.678 254.07C119.881 254.252 120.142 254.342 120.462 254.342C120.75 254.342 120.985 254.273 121.166 254.134C121.358 253.985 121.454 253.782 121.454 253.526C121.454 253.196 121.299 252.94 120.99 252.758C120.681 252.577 120.179 252.374 119.486 252.15C118.75 251.905 118.153 251.67 117.694 251.446C117.246 251.212 116.851 250.876 116.51 250.438C116.179 249.99 116.014 249.409 116.014 248.694C116.014 247.969 116.195 247.35 116.558 246.838C116.921 246.316 117.422 245.921 118.062 245.654C118.702 245.388 119.427 245.254 120.238 245.254C121.55 245.254 122.595 245.564 123.374 246.182C124.163 246.79 124.585 247.649 124.638 248.758H121.23C121.219 248.417 121.113 248.161 120.91 247.99C120.718 247.82 120.467 247.734 120.158 247.734C119.923 247.734 119.731 247.804 119.582 247.942C119.433 248.081 119.358 248.278 119.358 248.534C119.358 248.748 119.438 248.934 119.598 249.094C119.769 249.244 119.977 249.377 120.222 249.494C120.467 249.601 120.83 249.74 121.31 249.91C122.025 250.156 122.611 250.401 123.07 250.646C123.539 250.881 123.939 251.217 124.27 251.654C124.611 252.081 124.782 252.625 124.782 253.286C124.782 253.958 124.611 254.561 124.27 255.094C123.939 255.628 123.454 256.049 122.814 256.358C122.185 256.668 121.438 256.822 120.574 256.822ZM136.336 245.43V256.71H133.2V252.182H129.376V256.71H126.24V245.43H129.376V249.67H133.2V245.43H136.336ZM145.33 250.918C145.992 251.068 146.514 251.398 146.898 251.91C147.293 252.412 147.49 252.988 147.49 253.638C147.49 254.598 147.16 255.35 146.498 255.894C145.837 256.438 144.909 256.71 143.714 256.71H138.13V245.43H143.538C144.69 245.43 145.592 245.686 146.242 246.198C146.904 246.71 147.234 247.43 147.234 248.358C147.234 249.02 147.058 249.574 146.706 250.022C146.365 250.46 145.906 250.758 145.33 250.918ZM141.266 249.91H142.85C143.64 249.91 144.034 249.585 144.034 248.934C144.034 248.262 143.64 247.926 142.85 247.926H141.266V249.91ZM143.09 254.182C143.88 254.182 144.274 253.852 144.274 253.19C144.274 252.849 144.168 252.588 143.954 252.406C143.752 252.225 143.458 252.134 143.074 252.134H141.266V254.182H143.09ZM154.273 256.822C153.217 256.822 152.246 256.577 151.361 256.086C150.475 255.585 149.771 254.897 149.249 254.022C148.737 253.137 148.481 252.14 148.481 251.03C148.481 249.921 148.737 248.929 149.249 248.054C149.771 247.169 150.475 246.481 151.361 245.99C152.246 245.5 153.217 245.254 154.273 245.254C155.339 245.254 156.31 245.5 157.185 245.99C158.07 246.481 158.769 247.169 159.281 248.054C159.793 248.929 160.049 249.921 160.049 251.03C160.049 252.14 159.793 253.137 159.281 254.022C158.769 254.897 158.07 255.585 157.185 256.086C156.299 256.577 155.329 256.822 154.273 256.822ZM154.273 253.91C155.073 253.91 155.702 253.649 156.161 253.126C156.63 252.604 156.865 251.905 156.865 251.03C156.865 250.134 156.63 249.43 156.161 248.918C155.702 248.396 155.073 248.134 154.273 248.134C153.462 248.134 152.827 248.396 152.369 248.918C151.91 249.43 151.681 250.134 151.681 251.03C151.681 251.916 151.91 252.62 152.369 253.142C152.827 253.654 153.462 253.91 154.273 253.91ZM168.595 254.87H164.595L163.987 256.71H160.691L164.803 245.43H168.419L172.515 256.71H169.203L168.595 254.87ZM167.811 252.47L166.595 248.822L165.395 252.47H167.811ZM179.249 256.71L177.009 252.55H176.673V256.71H173.537V245.43H178.481C179.387 245.43 180.155 245.59 180.785 245.91C181.414 246.22 181.889 246.652 182.209 247.206C182.529 247.75 182.689 248.364 182.689 249.046C182.689 249.814 182.475 250.492 182.049 251.078C181.633 251.654 181.019 252.065 180.209 252.31L182.753 256.71H179.249ZM176.673 250.406H178.225C178.651 250.406 178.971 250.305 179.185 250.102C179.398 249.9 179.505 249.606 179.505 249.222C179.505 248.86 179.393 248.577 179.169 248.374C178.955 248.161 178.641 248.054 178.225 248.054H176.673V250.406ZM188.579 245.43C189.763 245.43 190.797 245.67 191.683 246.15C192.579 246.62 193.267 247.281 193.747 248.134C194.227 248.988 194.467 249.964 194.467 251.062C194.467 252.15 194.221 253.121 193.731 253.974C193.251 254.828 192.563 255.5 191.667 255.99C190.781 256.47 189.752 256.71 188.579 256.71H184.115V245.43H188.579ZM188.339 253.942C189.256 253.942 189.976 253.692 190.499 253.19C191.021 252.689 191.283 251.98 191.283 251.062C191.283 250.134 191.021 249.42 190.499 248.918C189.976 248.406 189.256 248.15 188.339 248.15H187.251V253.942H188.339Z" fill="white"/>
<path d="M25.652 271.346V272.234H22.016V275.054H24.968V275.942H22.016V279.71H20.924V271.346H25.652ZM32.9709 276.17C32.9709 276.378 32.9589 276.598 32.9349 276.83H27.6789C27.7189 277.478 27.9389 277.986 28.3389 278.354C28.7469 278.714 29.2389 278.894 29.8149 278.894C30.2869 278.894 30.6789 278.786 30.9909 278.57C31.3109 278.346 31.5349 278.05 31.6629 277.682H32.8389C32.6629 278.314 32.3109 278.83 31.7829 279.23C31.2549 279.622 30.5989 279.818 29.8149 279.818C29.1909 279.818 28.6309 279.678 28.1349 279.398C27.6469 279.118 27.2629 278.722 26.9829 278.21C26.7029 277.69 26.5629 277.09 26.5629 276.41C26.5629 275.73 26.6989 275.134 26.9709 274.622C27.2429 274.11 27.6229 273.718 28.1109 273.446C28.6069 273.166 29.1749 273.026 29.8149 273.026C30.4389 273.026 30.9909 273.162 31.4709 273.434C31.9509 273.706 32.3189 274.082 32.5749 274.562C32.8389 275.034 32.9709 275.57 32.9709 276.17ZM31.8429 275.942C31.8429 275.526 31.7509 275.17 31.5669 274.874C31.3829 274.57 31.1309 274.342 30.8109 274.19C30.4989 274.03 30.1509 273.95 29.7669 273.95C29.2149 273.95 28.7429 274.126 28.3509 274.478C27.9669 274.83 27.7469 275.318 27.6909 275.942H31.8429ZM35.5043 274.358C35.7283 273.966 36.0563 273.646 36.4883 273.398C36.9203 273.15 37.4123 273.026 37.9643 273.026C38.5563 273.026 39.0883 273.166 39.5603 273.446C40.0323 273.726 40.4043 274.122 40.6763 274.634C40.9483 275.138 41.0843 275.726 41.0843 276.398C41.0843 277.062 40.9483 277.654 40.6763 278.174C40.4043 278.694 40.0283 279.098 39.5483 279.386C39.0763 279.674 38.5483 279.818 37.9643 279.818C37.3963 279.818 36.8963 279.694 36.4643 279.446C36.0403 279.198 35.7203 278.882 35.5043 278.498V279.71H34.4123V270.83H35.5043V274.358ZM39.9683 276.398C39.9683 275.902 39.8683 275.47 39.6683 275.102C39.4683 274.734 39.1963 274.454 38.8523 274.262C38.5163 274.07 38.1443 273.974 37.7363 273.974C37.3363 273.974 36.9643 274.074 36.6203 274.274C36.2843 274.466 36.0123 274.75 35.8043 275.126C35.6043 275.494 35.5043 275.922 35.5043 276.41C35.5043 276.906 35.6043 277.342 35.8043 277.718C36.0123 278.086 36.2843 278.37 36.6203 278.57C36.9643 278.762 37.3363 278.858 37.7363 278.858C38.1443 278.858 38.5163 278.762 38.8523 278.57C39.1963 278.37 39.4683 278.086 39.6683 277.718C39.8683 277.342 39.9683 276.902 39.9683 276.398ZM45.4089 278.834C46.4249 278.018 47.2209 277.35 47.7969 276.83C48.3729 276.302 48.8569 275.754 49.2489 275.186C49.6489 274.61 49.8489 274.046 49.8489 273.494C49.8489 272.974 49.7209 272.566 49.4649 272.27C49.2169 271.966 48.8129 271.814 48.2529 271.814C47.7089 271.814 47.2849 271.986 46.9809 272.33C46.6849 272.666 46.5249 273.118 46.5009 273.686H45.4449C45.4769 272.79 45.7489 272.098 46.2609 271.61C46.7729 271.122 47.4329 270.878 48.2409 270.878C49.0649 270.878 49.7169 271.106 50.1969 271.562C50.6849 272.018 50.9289 272.646 50.9289 273.446C50.9289 274.11 50.7289 274.758 50.3289 275.39C49.9369 276.014 49.4889 276.566 48.9849 277.046C48.4809 277.518 47.8369 278.07 47.0529 278.702H51.1809V279.614H45.4089V278.834ZM52.4432 275.282C52.4432 273.906 52.6672 272.834 53.1152 272.066C53.5632 271.29 54.3472 270.902 55.4672 270.902C56.5792 270.902 57.3592 271.29 57.8072 272.066C58.2552 272.834 58.4792 273.906 58.4792 275.282C58.4792 276.682 58.2552 277.77 57.8072 278.546C57.3592 279.322 56.5792 279.71 55.4672 279.71C54.3472 279.71 53.5632 279.322 53.1152 278.546C52.6672 277.77 52.4432 276.682 52.4432 275.282ZM57.3992 275.282C57.3992 274.586 57.3512 273.998 57.2552 273.518C57.1672 273.03 56.9792 272.638 56.6912 272.342C56.4112 272.046 56.0032 271.898 55.4672 271.898C54.9232 271.898 54.5072 272.046 54.2192 272.342C53.9392 272.638 53.7512 273.03 53.6552 273.518C53.5672 273.998 53.5232 274.586 53.5232 275.282C53.5232 276.002 53.5672 276.606 53.6552 277.094C53.7512 277.582 53.9392 277.974 54.2192 278.27C54.5072 278.566 54.9232 278.714 55.4672 278.714C56.0032 278.714 56.4112 278.566 56.6912 278.27C56.9792 277.974 57.1672 277.582 57.2552 277.094C57.3512 276.606 57.3992 276.002 57.3992 275.282ZM59.8464 278.834C60.8624 278.018 61.6584 277.35 62.2344 276.83C62.8104 276.302 63.2944 275.754 63.6864 275.186C64.0864 274.61 64.2864 274.046 64.2864 273.494C64.2864 272.974 64.1584 272.566 63.9024 272.27C63.6544 271.966 63.2504 271.814 62.6904 271.814C62.1464 271.814 61.7224 271.986 61.4184 272.33C61.1224 272.666 60.9624 273.118 60.9384 273.686H59.8824C59.9144 272.79 60.1864 272.098 60.6984 271.61C61.2104 271.122 61.8704 270.878 62.6784 270.878C63.5024 270.878 64.1544 271.106 64.6344 271.562C65.1224 272.018 65.3664 272.646 65.3664 273.446C65.3664 274.11 65.1664 274.758 64.7664 275.39C64.3744 276.014 63.9264 276.566 63.4224 277.046C62.9184 277.518 62.2744 278.07 61.4904 278.702H65.6184V279.614H59.8464V278.834ZM66.6167 277.778V276.95L70.8287 271.118H72.1367V276.83H73.3367V277.778H72.1367V279.71H71.0567V277.778H66.6167ZM71.1047 272.258L67.8767 276.83H71.1047V272.258ZM82.3668 274.85V275.774H77.5788V274.85H82.3668ZM96.0994 271.406V279.71H95.0074V273.518L92.2474 279.71H91.4794L88.7074 273.506V279.71H87.6154V271.406H88.7914L91.8634 278.27L94.9354 271.406H96.0994ZM97.5433 276.398C97.5433 275.726 97.6793 275.138 97.9513 274.634C98.2233 274.122 98.5953 273.726 99.0673 273.446C99.5473 273.166 100.079 273.026 100.663 273.026C101.239 273.026 101.739 273.15 102.163 273.398C102.587 273.646 102.903 273.958 103.111 274.334V273.134H104.215V279.71H103.111V278.486C102.895 278.87 102.571 279.19 102.139 279.446C101.715 279.694 101.219 279.818 100.651 279.818C100.067 279.818 99.5393 279.674 99.0673 279.386C98.5953 279.098 98.2233 278.694 97.9513 278.174C97.6793 277.654 97.5433 277.062 97.5433 276.398ZM103.111 276.41C103.111 275.914 103.011 275.482 102.811 275.114C102.611 274.746 102.339 274.466 101.995 274.274C101.659 274.074 101.287 273.974 100.879 273.974C100.471 273.974 100.099 274.07 99.7633 274.262C99.4273 274.454 99.1593 274.734 98.9593 275.102C98.7593 275.47 98.6593 275.902 98.6593 276.398C98.6593 276.902 98.7593 277.342 98.9593 277.718C99.1593 278.086 99.4273 278.37 99.7633 278.57C100.099 278.762 100.471 278.858 100.879 278.858C101.287 278.858 101.659 278.762 101.995 278.57C102.339 278.37 102.611 278.086 102.811 277.718C103.011 277.342 103.111 276.906 103.111 276.41ZM107.153 274.202C107.345 273.826 107.617 273.534 107.969 273.326C108.329 273.118 108.765 273.014 109.277 273.014V274.142H108.989C107.765 274.142 107.153 274.806 107.153 276.134V279.71H106.061V273.134H107.153V274.202ZM113.425 278.834C114.441 278.018 115.237 277.35 115.812 276.83C116.389 276.302 116.873 275.754 117.265 275.186C117.665 274.61 117.865 274.046 117.865 273.494C117.865 272.974 117.737 272.566 117.481 272.27C117.233 271.966 116.829 271.814 116.269 271.814C115.725 271.814 115.301 271.986 114.997 272.33C114.701 272.666 114.541 273.118 114.517 273.686H113.461C113.493 272.79 113.765 272.098 114.277 271.61C114.789 271.122 115.449 270.878 116.257 270.878C117.081 270.878 117.733 271.106 118.213 271.562C118.701 272.018 118.945 272.646 118.945 273.446C118.945 274.11 118.745 274.758 118.345 275.39C117.953 276.014 117.505 276.566 117.001 277.046C116.497 277.518 115.853 278.07 115.069 278.702H119.197V279.614H113.425V278.834ZM120.459 275.282C120.459 273.906 120.683 272.834 121.131 272.066C121.579 271.29 122.363 270.902 123.483 270.902C124.595 270.902 125.375 271.29 125.823 272.066C126.271 272.834 126.495 273.906 126.495 275.282C126.495 276.682 126.271 277.77 125.823 278.546C125.375 279.322 124.595 279.71 123.483 279.71C122.363 279.71 121.579 279.322 121.131 278.546C120.683 277.77 120.459 276.682 120.459 275.282ZM125.415 275.282C125.415 274.586 125.367 273.998 125.271 273.518C125.183 273.03 124.995 272.638 124.707 272.342C124.427 272.046 124.019 271.898 123.483 271.898C122.939 271.898 122.523 272.046 122.235 272.342C121.955 272.638 121.767 273.03 121.671 273.518C121.583 273.998 121.539 274.586 121.539 275.282C121.539 276.002 121.583 276.606 121.671 277.094C121.767 277.582 121.955 277.974 122.235 278.27C122.523 278.566 122.939 278.714 123.483 278.714C124.019 278.714 124.427 278.566 124.707 278.27C124.995 277.974 125.183 277.582 125.271 277.094C125.367 276.606 125.415 276.002 125.415 275.282ZM127.862 278.834C128.878 278.018 129.674 277.35 130.25 276.83C130.826 276.302 131.31 275.754 131.702 275.186C132.102 274.61 132.302 274.046 132.302 273.494C132.302 272.974 132.174 272.566 131.918 272.27C131.67 271.966 131.266 271.814 130.706 271.814C130.162 271.814 129.738 271.986 129.434 272.33C129.138 272.666 128.978 273.118 128.954 273.686H127.898C127.93 272.79 128.202 272.098 128.714 271.61C129.226 271.122 129.886 270.878 130.694 270.878C131.518 270.878 132.17 271.106 132.65 271.562C133.138 272.018 133.382 272.646 133.382 273.446C133.382 274.11 133.182 274.758 132.782 275.39C132.39 276.014 131.942 276.566 131.438 277.046C130.934 277.518 130.29 278.07 129.506 278.702H133.634V279.614H127.862V278.834ZM134.632 277.778V276.95L138.844 271.118H140.152V276.83H141.352V277.778H140.152V279.71H139.072V277.778H134.632ZM139.12 272.258L135.892 276.83H139.12V272.258Z" fill="#B1B2B3" fill-opacity="0.5"/>
</svg>
