<svg xmlns="http://www.w3.org/2000/svg" width="142" height="40" viewBox="0 0 142 40" fill="none">
  <path d="M1.43189 35.1439C1.04789 35.1439 0.663891 35.1119 0.279891 35.0479C0.151891 35.0479 0.0878906 34.9839 0.0878906 34.8559C0.119891 34.7279 0.199891 34.6639 0.327891 34.6639C0.647891 34.7279 1.01589 34.7599 1.43189 34.7599C3.35189 34.7599 5.33589 34.0559 7.38389 32.6479C7.19189 32.6799 6.99989 32.6959 6.80789 32.6959H6.18389C4.61589 32.6959 3.41589 32.3279 2.58389 31.5919C1.78389 30.8559 1.38389 29.8959 1.38389 28.7119C1.38389 26.5999 2.45589 24.5839 4.59989 22.6639C6.99989 20.5519 10.1199 19.2719 13.9599 18.8239C14.0879 18.8239 14.1839 18.8719 14.2479 18.9679V19.0639C14.2479 19.3199 14.1359 19.4479 13.9119 19.4479C10.5839 19.9599 7.75189 21.2719 5.41589 23.3839C3.30389 25.3039 2.24789 27.1919 2.24789 29.0479C2.24789 31.0639 3.55989 32.0719 6.18389 32.0719C7.07989 32.0719 7.87989 31.9599 8.58389 31.7359C11.3039 29.4319 13.5599 26.3279 15.3519 22.4239C17.1759 18.4879 18.0879 14.7119 18.0879 11.0959C18.0879 9.0159 17.7519 7.1759 17.0799 5.5759C13.9119 4.8719 11.7519 4.4559 10.5999 4.3279C10.3759 4.2959 10.1519 4.2799 9.92789 4.2799C9.70389 4.2799 9.49589 4.2799 9.30389 4.2799C7.99189 4.2799 6.88789 4.4559 5.99189 4.8079C5.67189 5.6719 5.51189 6.6799 5.51189 7.8319C5.51189 9.8159 5.95989 11.5119 6.85589 12.9199C6.98389 12.9519 7.11189 12.9679 7.23989 12.9679H7.67189C9.81589 12.9679 11.7519 12.4399 13.4799 11.3839C14.9519 10.5199 15.8799 9.5919 16.2639 8.5999C16.2959 8.4079 16.3759 8.3119 16.5039 8.3119C16.7599 8.3119 16.8239 8.5039 16.6959 8.8879C16.2479 10.1359 15.2879 11.2079 13.8159 12.1039C12.0559 13.2239 10.0079 13.7839 7.67189 13.7839H7.47989C8.40789 14.8399 9.54389 15.3999 10.8879 15.4639C10.9839 15.4639 11.0319 15.4959 11.0319 15.5599C11.0319 15.6879 10.9679 15.7519 10.8399 15.7519C9.27189 15.6559 7.95989 14.9839 6.90389 13.7359C5.14389 13.6079 3.68789 12.9679 2.53589 11.8159C1.47989 10.8239 0.951891 9.6399 0.951891 8.2639C0.951891 7.0479 1.39989 5.9759 2.29589 5.0479C3.19189 4.0879 4.51989 3.4639 6.27989 3.1759C6.69589 2.4719 7.23989 1.8639 7.91189 1.3519C8.80789 0.647899 9.92789 0.295898 11.2719 0.295898C13.3519 0.295898 15.1119 1.2559 16.5519 3.1759C16.9359 3.6559 17.2399 4.1519 17.4639 4.6639L24.9039 6.5359C26.2479 4.6799 27.6239 3.6239 29.0319 3.3679C29.2239 3.3359 29.3199 3.3999 29.3199 3.5599C29.3199 3.8159 29.1599 3.9599 28.8399 3.9919C27.9119 4.1199 26.9839 5.0319 26.0559 6.7279C27.5279 6.9839 28.9039 7.1119 30.1839 7.1119C33.2559 7.1119 35.7359 6.3119 37.6239 4.7119C37.6879 4.6479 37.7519 4.6159 37.8159 4.6159C37.8799 4.6159 37.9119 4.6799 37.9119 4.8079C37.9119 5.0639 37.8159 5.2879 37.6239 5.4799C35.9279 6.9839 33.4479 7.7359 30.1839 7.7359C28.8719 7.7359 27.3839 7.6079 25.7199 7.3519C25.1759 8.4719 24.3439 10.5519 23.2239 13.5919C22.6159 15.2879 22.0719 16.7439 21.5919 17.9599C21.1439 19.1759 20.7439 20.1679 20.3919 20.9359C17.3199 27.9119 13.2399 31.7839 8.15189 32.5519C5.87989 34.2799 3.63989 35.1439 1.43189 35.1439ZM16.5039 4.3759C15.0319 1.9439 13.1919 0.727899 10.9839 0.727899C9.89589 0.727899 8.93589 1.0479 8.10389 1.6879C7.59189 2.0079 7.15989 2.4719 6.80789 3.0799C7.09589 3.0159 7.38389 2.9839 7.67189 2.9839C7.95989 2.9839 8.24789 2.9839 8.53589 2.9839C9.27189 2.9839 10.0239 3.0319 10.7919 3.1279C12.1359 3.2559 14.0399 3.6719 16.5039 4.3759ZM6.23189 12.8239C5.36789 11.3839 4.93589 9.7679 4.93589 7.9759C4.93589 6.8879 5.09589 5.9119 5.41589 5.0479C3.68789 5.8799 2.82389 7.1279 2.82389 8.7919C2.82389 9.6879 3.12789 10.5199 3.73589 11.2879C4.34389 12.0239 5.17589 12.5359 6.23189 12.8239ZM9.63989 31.3519C11.2079 30.6479 12.7279 29.3839 14.1999 27.5599C15.6719 25.7359 17.0479 23.3199 18.3279 20.3119L21.3519 13.2559C22.5359 10.5679 23.5759 8.5359 24.4719 7.1599C23.6719 7.0319 22.7279 6.8559 21.6399 6.6319C20.5839 6.4079 19.3519 6.1199 17.9439 5.7679C18.4879 7.3039 18.7599 8.9999 18.7599 10.8559C18.7599 14.3759 17.8959 18.0719 16.1679 21.9439C14.4399 25.7839 12.2639 28.9199 9.63989 31.3519Z" fill="white"/>
  <path d="M24.0815 29.1439C23.9855 29.1439 23.9375 29.0959 23.9375 28.9999C23.8735 28.1039 24.0655 26.3759 24.5135 23.8159C24.7375 22.5359 24.9455 21.4639 25.1375 20.5999C25.3615 19.7039 25.5535 19.0319 25.7135 18.5839C24.7215 18.8079 24.1935 19.2079 24.1295 19.7839C24.0655 20.1679 23.9535 20.3599 23.7935 20.3599C23.6015 20.3599 23.5375 20.1679 23.6015 19.7839C23.6335 18.8879 24.4495 18.1999 26.0495 17.7199C26.4655 16.3439 26.9615 14.9999 27.5375 13.6879C28.1455 12.3759 28.8175 11.0959 29.5535 9.8479C31.2815 7.0319 33.1055 4.8879 35.0255 3.4159C36.9775 1.9119 38.9615 1.1599 40.9775 1.1599C43.5695 1.1599 45.2975 2.2479 46.1615 4.4239C46.3855 4.9679 46.4975 5.5599 46.4975 6.1999C46.4975 8.0559 45.5855 9.6719 43.7615 11.0479C41.0415 13.1599 35.5855 15.5119 27.3935 18.1039C26.9455 19.3199 26.4015 21.8799 25.7615 25.7839L29.7455 20.5039C29.8095 20.1199 30.0335 19.7039 30.4175 19.2559C30.8335 18.7759 31.1695 18.5359 31.4255 18.5359C31.6495 18.5359 31.7615 18.7119 31.7615 19.0639C31.7615 19.1279 31.7615 19.2079 31.7615 19.3039C31.7615 19.3999 31.7455 19.4959 31.7135 19.5919C31.3295 22.1839 31.1375 23.9119 31.1375 24.7759C31.1375 26.8239 31.5055 27.8479 32.2415 27.8479C33.0735 27.8479 34.2095 26.9999 35.6495 25.3039L36.6575 24.0559C36.7535 23.9599 36.8335 24.0559 36.8975 24.3439C36.6415 24.9199 35.9855 25.7519 34.9295 26.8399C33.4895 28.3439 32.2575 29.0959 31.2335 29.0959C30.8815 29.0959 30.5935 29.0319 30.3695 28.9039C29.6015 28.5199 29.2175 27.2239 29.2175 25.0159C29.2175 24.4399 29.2335 23.8959 29.2655 23.3839C29.3295 22.8719 29.3935 22.3919 29.4575 21.9439C28.6895 22.8399 27.4255 24.3919 25.6655 26.5999C25.6015 27.3359 25.3775 27.9439 24.9935 28.4239C24.6415 28.9039 24.3375 29.1439 24.0815 29.1439ZM27.5855 17.2879C29.8255 16.6479 32.5615 15.5759 35.7935 14.0719C39.3135 12.4399 41.8895 10.9999 43.5215 9.7519C45.1215 8.5039 45.9215 7.2239 45.9215 5.9119C45.9215 5.5599 45.8575 5.2399 45.7295 4.9519C45.0895 3.3519 43.5535 2.5519 41.1215 2.5519C40.4495 2.5519 39.8575 2.6159 39.3455 2.7439C35.9535 3.3519 33.2655 5.3039 31.2815 8.5999C30.9295 9.1439 30.4495 10.1359 29.8415 11.5759C29.2335 13.0479 28.4815 14.9519 27.5855 17.2879Z" fill="white"/>
  <path d="M38.9705 29.5759C38.1705 29.5759 37.5145 29.2079 37.0025 28.4719C36.4905 27.7359 36.2345 26.7919 36.2345 25.6399C36.2345 24.7119 36.3945 23.7679 36.7145 22.8079C37.8985 19.2239 39.3545 17.3519 41.0825 17.1919C41.2745 16.9679 41.5465 16.8559 41.8985 16.8559C42.5385 16.8559 43.1625 17.1439 43.7705 17.7199C44.4105 18.2959 44.7625 18.9039 44.8265 19.5439C45.2425 20.0559 45.8505 20.3119 46.6505 20.3119C46.9065 20.3119 47.2905 20.2799 47.8025 20.2159C48.3145 20.1519 48.6985 20.1199 48.9545 20.1199C49.0825 20.1199 49.1145 20.1999 49.0505 20.3599C49.0185 20.4879 48.8585 20.6319 48.5705 20.7919C47.9945 21.0799 47.2745 21.2559 46.4105 21.3199H45.8345C45.2905 21.3199 44.8905 21.2559 44.6345 21.1279C44.7945 22.3439 44.2185 24.0879 42.9065 26.3599C41.7225 28.5039 40.4105 29.5759 38.9705 29.5759ZM39.2585 28.6159C40.0905 28.6159 40.9865 27.8639 41.9465 26.3599C42.2025 25.9439 42.4425 25.4799 42.6665 24.9679C42.9225 24.4559 43.1305 23.8799 43.2905 23.2399C43.6105 22.1519 43.7385 21.3679 43.6745 20.8879C42.4905 20.6959 41.8025 20.0079 41.6105 18.8239C40.7465 19.0799 39.9145 20.1839 39.1145 22.1359C38.3785 23.9599 38.0105 25.4319 38.0105 26.5519C38.0105 27.9279 38.4265 28.6159 39.2585 28.6159Z" fill="white"/>
  <path d="M49.1154 29.1919C47.8994 29.0319 47.2914 28.1839 47.2914 26.6479C47.2914 24.2799 48.4594 21.3519 50.7954 17.8639C50.9554 17.6079 51.3554 17.4799 51.9954 17.4799C52.9874 17.4799 53.4834 17.6399 53.4834 17.9599L53.4354 18.0559C53.0514 18.4399 52.6354 18.9359 52.1874 19.5439C51.7714 20.1519 51.3394 20.8719 50.8914 21.7039C50.1234 23.0799 49.5314 24.3759 49.1154 25.5919C48.8914 26.1679 48.7794 26.6959 48.7794 27.1759C48.7794 27.8159 48.9874 28.1359 49.4034 28.1359C49.8834 28.1359 50.4754 27.7839 51.1794 27.0799C51.4354 26.8239 52.7154 25.0479 55.0194 21.7519C55.4994 21.1119 55.8834 20.7919 56.1714 20.7919C56.3954 20.7919 56.5074 21.0639 56.5074 21.6079C56.5074 21.8959 56.4914 22.1839 56.4594 22.4719C56.4594 22.7279 56.4594 22.9839 56.4594 23.2399C56.4594 26.5359 57.1154 28.1839 58.4274 28.1839C59.2914 28.1839 60.2674 27.6239 61.3554 26.5039L62.2194 25.5919C62.3154 25.5279 62.4114 25.5919 62.5074 25.7839C62.3794 26.1359 61.8194 26.7279 60.8274 27.5599C59.5794 28.6159 58.4434 29.1439 57.4194 29.1439C57.1314 29.1439 56.8434 29.0959 56.5554 28.9999C55.6914 28.7119 55.0994 27.7039 54.7794 25.9759C54.5554 24.6959 54.4594 23.8959 54.4914 23.5759C54.2994 23.9279 53.6754 24.8559 52.6194 26.3599C51.1154 28.3759 49.9474 29.3199 49.1154 29.1919Z" fill="white"/>
  <path d="M63.7674 39.0799C63.0954 39.0799 62.4554 38.8399 61.8474 38.3599C61.1114 37.7199 60.6954 36.9359 60.5994 36.0079C60.5674 35.7839 60.5514 35.5599 60.5514 35.3359V34.6639C60.5514 32.4879 60.9354 29.6239 61.7034 26.0719C61.9914 24.6319 62.2794 23.3359 62.5674 22.1839C62.8874 21.0319 63.2074 19.9919 63.5274 19.0639C63.4314 19.0959 63.2874 19.1119 63.0954 19.1119C62.6794 19.1119 62.3594 19.0159 62.1354 18.8239C61.9114 18.6319 61.7994 18.4399 61.7994 18.2479C61.7994 18.0879 61.8794 18.0079 62.0394 18.0079C62.2954 18.0079 62.6154 17.9759 62.9994 17.9119C63.3834 17.8479 63.6554 17.8159 63.8154 17.8159C65.2554 14.0719 66.4074 11.4319 67.2714 9.8959C69.2874 6.2799 71.3354 4.4719 73.4154 4.4719C73.7674 4.4719 74.1194 4.5199 74.4714 4.6159C75.2394 4.8719 75.6234 5.3839 75.6234 6.1519C75.6234 6.7279 75.3994 7.1119 74.9514 7.3039C75.0154 7.0479 75.0474 6.8399 75.0474 6.6799C75.0474 5.8799 74.6314 5.5119 73.7994 5.5759C72.3594 5.6079 70.6474 7.3039 68.6634 10.6639C67.9274 11.8799 67.2714 13.0959 66.6954 14.3119C66.1514 15.4959 65.6874 16.6479 65.3034 17.7679L72.0234 17.8639C72.1194 17.8639 72.1674 17.8959 72.1674 17.9599L72.2154 18.0079C72.2154 18.0399 72.2154 18.0719 72.2154 18.1039C72.2154 18.2639 72.1674 18.5199 72.0714 18.8719C71.9754 19.2239 71.8634 19.5279 71.7354 19.7839C71.4794 20.4559 71.1914 20.8079 70.8714 20.8399C70.8074 20.8719 70.6794 21.2879 70.4874 22.0879C70.2954 22.8879 70.1194 23.9759 69.9594 25.3519C69.8954 25.7999 69.8634 26.1519 69.8634 26.4079C69.8634 27.3999 70.1194 27.8959 70.6314 27.8959C71.0154 27.8959 71.5274 27.6239 72.1674 27.0799L75.0954 24.6319C75.2234 24.5359 75.3194 24.5199 75.3834 24.5839C75.4794 24.6159 75.4954 24.7119 75.4314 24.8719C74.8874 25.7039 73.8794 26.6639 72.4074 27.7519C71.3194 28.5519 70.4234 28.9519 69.7194 28.9519C68.6954 28.9519 68.1834 28.0559 68.1834 26.2639V25.6879C68.1834 25.4959 68.1994 25.2879 68.2314 25.0639C68.2954 24.6479 68.3914 24.1359 68.5194 23.5279C68.6474 22.9199 68.8234 22.1999 69.0474 21.3679L69.8154 18.8239C68.9834 18.8879 68.0874 18.9039 67.1274 18.8719H64.9674C64.0714 21.1119 63.3514 24.2159 62.8074 28.1839C62.4874 30.7439 62.3274 32.6319 62.3274 33.8479C62.3274 36.0559 62.6954 37.5279 63.4314 38.2639C63.5914 38.3919 63.7994 38.5199 64.0554 38.6479C64.2794 38.8079 64.3914 38.9039 64.3914 38.9359C64.3914 39.0319 64.1834 39.0799 63.7674 39.0799ZM72.5514 14.1199C72.2954 14.1199 72.0234 14.0719 71.7354 13.9759C71.4794 13.8479 71.3514 13.7359 71.3514 13.6399C71.3514 13.5759 71.3674 13.5279 71.3994 13.4959C72.5194 12.5679 73.4474 12.1039 74.1834 12.1039C74.3754 12.1039 74.4714 12.1679 74.4714 12.2959C74.4714 12.4879 74.2634 12.8079 73.8474 13.2559C73.4314 13.7039 73.0954 13.9759 72.8394 14.0719C72.8074 14.0719 72.7594 14.0879 72.6954 14.1199C72.6634 14.1199 72.6154 14.1199 72.5514 14.1199Z" fill="white"/>
  <path d="M82.6299 39.7039C81.2539 39.5759 80.1979 38.8879 79.4619 37.6399C78.8859 36.7119 78.5979 35.6559 78.5979 34.4719C78.5979 31.5919 79.3659 28.2159 80.9019 24.3439C80.7099 24.6959 80.1499 25.4799 79.2219 26.6959C77.8459 28.4879 76.7259 29.3199 75.8619 29.1919C74.8379 29.0319 74.3259 28.3119 74.3259 27.0319C74.3259 25.0799 75.2219 22.9199 77.0139 20.5519C78.8699 18.0559 80.7899 16.8079 82.7739 16.8079C83.4139 16.8079 84.0219 16.9679 84.5979 17.2879C85.1739 17.5759 85.4619 18.0399 85.4619 18.6799C85.4619 19.4159 85.1579 19.8319 84.5499 19.9279C84.7419 19.6079 84.8379 19.2879 84.8379 18.9679C84.8379 18.2639 84.4379 17.9119 83.6379 17.9119C82.8699 17.9119 82.0379 18.2959 81.1419 19.0639C78.9339 20.9519 77.3179 23.1439 76.2939 25.6399C75.9739 26.4079 75.8139 27.0479 75.8139 27.5599C75.8139 27.9759 75.9579 28.1839 76.2459 28.1839C76.5659 28.1839 77.1259 27.8159 77.9259 27.0799C78.4699 26.5679 79.6539 25.0159 81.4779 22.4239C81.9259 21.7839 82.3259 21.4639 82.6779 21.4639C83.0619 21.4639 83.2219 21.8319 83.1579 22.5679C81.0779 28.1359 80.0379 32.3279 80.0379 35.1439C80.0379 37.0319 80.5019 38.2479 81.4299 38.7919C81.6859 38.9519 81.9579 39.0319 82.2459 39.0319C82.9179 39.0319 83.3979 38.7759 83.6859 38.2639C83.7819 38.1359 83.8779 38.0399 83.9739 37.9759C84.0699 37.9439 84.1179 37.9599 84.1179 38.0239V38.0719C84.1179 38.1039 84.1019 38.1519 84.0699 38.2159C84.0699 38.3119 84.0539 38.4079 84.0219 38.5039C83.7019 39.3679 83.2379 39.7679 82.6299 39.7039Z" fill="white"/>
  <path d="M104.135 34.5199C101.895 34.5199 100.455 33.7679 99.8146 32.2639C99.6546 32.2959 99.4946 32.3119 99.3346 32.3119H98.8066C96.1186 32.3119 94.7746 31.5759 94.7746 30.1039C94.7746 29.4959 94.9986 29.1919 95.4466 29.1919C95.6066 29.1919 95.6866 29.2559 95.6866 29.3839L95.5906 29.6239C95.4946 29.7519 95.4466 29.8799 95.4466 30.0079C95.4466 30.6799 95.9746 31.1599 97.0306 31.4479C97.7986 31.6719 98.6626 31.7359 99.6226 31.6399C99.5906 31.5439 99.5746 31.3679 99.5746 31.1119C99.5746 29.8639 100.199 28.5199 101.447 27.0799C103.111 25.1599 105.655 23.8159 109.079 23.0479C109.463 22.3439 109.847 21.5279 110.231 20.5999C110.615 19.7359 110.999 18.8719 111.383 18.0079C111.767 17.1439 112.135 16.2799 112.487 15.4159C113.607 12.9519 114.647 10.9679 115.607 9.4639C114.743 6.6799 113.303 4.6959 111.287 3.5119C111.127 3.4799 110.967 3.4639 110.807 3.4639H110.279C108.071 3.4639 105.799 4.3279 103.463 6.0559C101.159 7.7519 99.4946 9.8159 98.4706 12.2479C98.3106 12.6639 98.1506 13.0799 97.9906 13.4959C97.8626 13.8799 97.7666 14.2799 97.7026 14.6959C98.2146 15.6879 98.8546 16.4079 99.6226 16.8559C100.391 17.3039 101.271 17.5279 102.263 17.5279C103.511 17.5279 104.663 17.1439 105.719 16.3759C106.871 15.5759 107.527 14.6159 107.687 13.4959C107.687 13.3679 107.751 13.3039 107.879 13.3039C108.007 13.3359 108.071 13.4159 108.071 13.5439C107.943 14.6959 107.239 15.7359 105.959 16.6639C104.775 17.4959 103.495 17.9119 102.119 17.9119C101.191 17.9119 100.343 17.7359 99.5746 17.3839C98.8066 17.0319 98.1506 16.4719 97.6066 15.7039C97.5746 15.8639 97.5586 16.0239 97.5586 16.1839C97.5586 16.3439 97.5586 16.5039 97.5586 16.6639C97.5586 17.9119 97.8306 18.9519 98.3746 19.7839C99.2066 20.9999 100.535 21.6079 102.359 21.6079C103.735 21.6079 105.095 21.1279 106.439 20.1679C107.335 19.5279 108.039 18.8559 108.551 18.1519C108.679 17.9279 108.775 17.8799 108.839 18.0079V18.0559C108.839 18.0879 108.823 18.1519 108.791 18.2479C108.791 18.3119 108.775 18.3919 108.743 18.4879C108.327 19.3839 107.447 20.2799 106.103 21.1759C104.503 22.1999 102.951 22.7119 101.447 22.7119C99.5906 22.7119 98.1826 22.1199 97.2226 20.9359C96.3906 19.8479 95.9746 18.4719 95.9746 16.8079C95.9746 15.7519 96.1506 14.6479 96.5026 13.4959C96.2786 12.8239 96.1666 12.0559 96.1666 11.1919C96.1666 7.7679 97.7666 5.0959 100.967 3.1759C102.567 2.1839 104.327 1.6879 106.247 1.6879C107.719 1.6879 109.143 2.0079 110.519 2.6479L110.759 2.7919C110.919 2.7599 111.095 2.7439 111.287 2.7439H111.767C115.031 2.7439 117.431 3.7199 118.967 5.6719C119.383 5.3839 119.831 5.1919 120.311 5.0959C120.503 5.0639 120.599 5.1279 120.599 5.2879C120.599 5.5119 120.455 5.6399 120.167 5.6719C119.847 5.7359 119.543 5.8799 119.255 6.1039C120.311 7.7039 120.839 9.8319 120.839 12.4879C120.839 15.4639 120.183 18.9679 118.871 22.9999L120.359 23.3839L120.983 22.2799C124.183 16.9679 126.631 13.2239 128.327 11.0479C132.295 5.9599 135.719 3.4159 138.599 3.4159C139.367 3.4159 139.975 3.7039 140.423 4.2799C140.903 4.8239 141.143 5.4959 141.143 6.2959C141.143 6.8399 141.079 7.1119 140.951 7.1119C140.791 7.1119 140.711 6.9999 140.711 6.7759C140.711 5.3679 139.975 4.6639 138.503 4.6639C137.863 4.6639 137.239 4.8079 136.631 5.0959C134.231 6.1839 131.367 8.9199 128.039 13.3039C127.303 14.2959 126.343 15.6559 125.159 17.3839C124.007 19.0799 122.631 21.1759 121.031 23.6719C123.783 24.7919 125.159 26.4079 125.159 28.5199C125.159 29.1599 125.047 29.7679 124.823 30.3439C124.823 30.4399 124.775 30.4879 124.679 30.4879C124.455 30.4879 124.375 30.3919 124.439 30.1999C124.663 29.6239 124.775 29.0479 124.775 28.4719C124.775 26.4559 123.463 24.9519 120.839 23.9599L120.743 24.1039C118.311 27.8799 116.695 29.7679 115.895 29.7679C115.671 29.7679 115.607 29.6719 115.703 29.4799C116.503 27.5599 117.175 25.4639 117.719 23.1919L116.279 22.9999C114.839 28.1199 111.975 31.6879 107.687 33.7039C106.503 34.2479 105.319 34.5199 104.135 34.5199ZM96.9826 12.1999C98.0386 9.8639 99.8146 7.7999 102.311 6.0079C104.807 4.2159 107.367 3.1599 109.991 2.8399C108.839 2.3279 107.591 2.0719 106.247 2.0719C104.423 2.0719 102.727 2.5519 101.159 3.5119C98.3426 5.1759 96.9346 7.7039 96.9346 11.0959V11.6719C96.9346 11.8639 96.9506 12.0399 96.9826 12.1999ZM116.135 8.6479C116.615 7.9759 117.015 7.4479 117.335 7.0639C116.247 5.2079 114.535 4.0559 112.199 3.6079C113.959 4.7919 115.271 6.4719 116.135 8.6479ZM117.815 22.7599C118.583 19.6559 118.967 16.8239 118.967 14.2639C118.967 11.6399 118.567 9.5119 117.767 7.8799C117.415 8.4559 117.031 9.1759 116.615 10.0399C117.063 11.6719 117.287 13.4479 117.287 15.3679C117.287 17.8959 116.983 20.3119 116.375 22.6159L117.815 22.7599ZM130.775 31.4479C128.535 31.4479 127.415 29.8799 127.415 26.7439C127.415 23.7039 128.087 20.1039 129.431 15.9439C131.191 10.5679 133.351 7.9759 135.911 8.1679C136.103 8.1679 136.199 8.2639 136.199 8.4559C136.135 8.6479 135.975 8.7439 135.719 8.7439C133.959 8.7439 132.391 11.4479 131.015 16.8559C129.959 21.0159 129.431 24.1999 129.431 26.4079C129.431 29.2239 130.151 30.6319 131.591 30.6319C132.839 30.6319 134.055 29.6559 135.239 27.7039C135.367 27.5119 135.495 27.4159 135.623 27.4159C135.719 27.4159 135.767 27.4639 135.767 27.5599C135.767 27.7199 135.735 27.8479 135.671 27.9439C135.127 28.9999 134.391 29.8479 133.463 30.4879C132.567 31.1279 131.671 31.4479 130.775 31.4479ZM111.527 22.6639C112.487 22.5679 113.447 22.5199 114.407 22.5199C114.631 22.5199 114.855 22.5199 115.079 22.5199C115.335 22.5199 115.575 22.5359 115.799 22.5679C116.279 20.6159 116.519 18.4239 116.519 15.9919C116.519 14.2319 116.359 12.6479 116.039 11.2399C115.591 12.4559 115.047 13.8959 114.407 15.5599L112.151 21.2239C111.959 21.7359 111.751 22.2159 111.527 22.6639ZM104.135 34.1839C105.159 34.1839 106.295 33.9119 107.543 33.3679C111.607 31.4479 114.311 27.9919 115.655 22.9999C114.919 22.9679 114.183 22.9679 113.447 22.9999C112.711 23.0319 111.975 23.1119 111.239 23.2399C108.455 28.5839 104.903 31.5599 100.583 32.1679C101.063 33.5119 102.247 34.1839 104.135 34.1839ZM116.375 29.1439C117.111 28.7919 118.375 26.9839 120.167 23.7199L118.775 23.3359C118.423 24.4239 118.039 25.4479 117.623 26.4079C117.239 27.3679 116.823 28.2799 116.375 29.1439ZM100.391 31.5439C103.495 30.9359 106.279 28.3279 108.743 23.7199C105.799 24.4879 103.623 25.6719 102.215 27.2719C100.839 28.8079 100.231 30.2319 100.391 31.5439Z" fill="white"/>
</svg>